<?xml version="1.0" encoding="UTF-8"?>
<svg width="44px" height="44px" viewBox="0 0 44 44" version="1.1" xmlns="http://www.w3.org/2000/svg" xmlns:xlink="http://www.w3.org/1999/xlink">
    <title>Add</title>
    <g id="Page-1" stroke="none" stroke-width="1" fill="none" fill-rule="evenodd">
        <g id="iPhone-13-Pro" transform="translate(-217.000000, -129.000000)" fill="#050505">
            <path d="M239,139 C239.552285,139 240,139.447715 240,140 L240,150 L250,150 C250.552285,150 251,150.447715 251,151 C251,151.552285 250.552285,152 250,152 L240,152 L240,162 C240,162.552285 239.552285,163 239,163 C238.447715,163 238,162.552285 238,162 L238,152 L228,152 C227.447715,152 227,151.552285 227,151 C227,150.447715 227.447715,150 228,150 L238,150 L238,140 C238,139.447715 238.447715,139 239,139 Z" id="Combined-Shape"></path>
        </g>
    </g>
</svg>