<?xml version="1.0" encoding="UTF-8"?>
<svg width="43px" height="43px" viewBox="0 0 43 43" version="1.1" xmlns="http://www.w3.org/2000/svg" xmlns:xlink="http://www.w3.org/1999/xlink">
    <title>CheckInvert</title>
    <g id="Page-1" stroke="none" stroke-width="1" fill="none" fill-rule="evenodd" fill-opacity="0.85">
        <g id="iPhone-13-Pro" transform="translate(-267.000000, -274.000000)" fill="#000000" fill-rule="nonzero">
            <path d="M304.058952,317.000472 C303.679612,317.036988 303.282235,317.055276 302.866858,317.055276 L274.114843,317.055276 C273.699972,317.055276 273.303056,317.037032 272.924144,317.000569 Z M302.866858,274.055276 C305.222845,274.055276 306.99975,274.643658 308.190824,275.809164 L305.714495,278.285835 C305.040361,277.628353 304.057145,277.293997 302.811982,277.293997 L274.187999,277.293997 C271.627384,277.293997 270.237352,278.648048 270.237352,281.264637 L270.237352,309.846015 C270.237352,311.133439 270.573899,312.115237 271.22085,312.780473 L268.749182,315.25093 C267.586011,314.075511 267,312.327307 267,310.010714 L267,281.099957 C267,276.415699 269.396006,274.055276 274.114843,274.055276 Z" id="Combined-Shape"></path>
            <path d="M310,281.099957 L310,310.010714 C310,314.67661 307.603994,317.055276 302.866858,317.055276 L274.114843,317.055276 C271.730011,317.055276 269.938464,316.452421 268.749648,315.251401 L280.127413,303.87254 L283.362162,307.781075 C283.987894,308.579932 284.613649,308.925204 285.433597,308.925204 C286.253544,308.925204 286.922362,308.536607 287.418617,307.781075 L300.925992,286.56171 C301.228032,286.108413 301.508639,285.547158 301.508639,285.029095 C301.508639,284.31902 301.104663,283.761611 300.54571,283.45533 L308.190824,275.809164 C309.394618,276.987117 310,278.754589 310,281.099957 Z M294.623413,289.37654 L285.347205,304.13317 L282.911413,301.08854 L294.623413,289.37654 Z" id="Combined-Shape"></path>
        </g>
    </g>
</svg>