<?xml version="1.0" encoding="UTF-8"?>
<svg width="43px" height="44px" viewBox="0 0 43 44" version="1.1" xmlns="http://www.w3.org/2000/svg" xmlns:xlink="http://www.w3.org/1999/xlink">
    <title>Unchecked</title>
    <g id="Page-1" stroke="none" stroke-width="1" fill="none" fill-rule="evenodd" fill-opacity="0.85">
        <g id="iPhone-13-Pro" transform="translate(-210.000000, -209.000000)" fill="#000000" fill-rule="nonzero">
            <path d="M217.114843,252.055276 L245.866858,252.055276 C250.603994,252.055276 253,249.67661 253,245.010714 L253,216.099957 C253,211.434005 250.603994,209.055276 245.866858,209.055276 L217.114843,209.055276 C212.396006,209.055276 210,211.415699 210,216.099957 L210,245.010714 C210,249.694972 212.396006,252.055276 217.114843,252.055276 Z M217.187999,248.81658 C214.627384,248.81658 213.237352,247.462455 213.237352,244.846015 L213.237352,216.264637 C213.237352,213.648048 214.627384,212.293997 217.187999,212.293997 L245.811982,212.293997 C248.31774,212.293997 249.762686,213.648048 249.762686,216.264637 L249.762686,244.846015 C249.762686,247.462455 248.31774,248.81658 245.811982,248.81658 L217.187999,248.81658 Z" id="Unchecked"></path>
        </g>
    </g>
</svg>