<?xml version="1.0" encoding="UTF-8"?>
<svg width="35px" height="28px" viewBox="0 0 35 28" version="1.1" xmlns="http://www.w3.org/2000/svg" xmlns:xlink="http://www.w3.org/1999/xlink">
    <title>arrow.up.arrow.down</title>
    <g id="Page-1" stroke="none" stroke-width="1" fill="none" fill-rule="evenodd">
        <g id="iPhone-13-Pro" transform="translate(-28.000000, -397.000000)" fill="#000000" fill-rule="nonzero">
            <g id="arrow.up.arrow.down" transform="translate(28.000000, 397.000000)">
                <rect id="Rectangle" opacity="0" x="0" y="0" width="35" height="28"></rect>
                <path d="M26.2228926,27.62171 L33.7558503,19.8219442 C33.9865541,19.5873801 34.125,19.2706646 34.125,18.9657193 C34.125,18.2854475 33.6520159,17.8280295 33.0059743,17.8280295 C32.6830126,17.8280295 32.4292148,17.9335413 32.198511,18.1681654 L28.9222925,21.5812948 L26.3843734,24.4783352 L26.4997254,21.0534957 L26.4997254,1.14943723 C26.4997254,0.492615803 26.0267412,0 25.3692413,0 C24.7116823,0 24.2502156,0.492615803 24.2502156,1.14943723 L24.2502156,21.0534957 L24.3655675,24.4783352 L21.8277075,21.5812948 L18.5399715,18.1681654 C18.3207852,17.9335413 18.0669874,17.8280295 17.7439666,17.8280295 C17.0864076,17.8280295 16.625,18.2854475 16.625,18.9657193 C16.625,19.2706646 16.7633868,19.5873801 16.9941497,19.8219442 L24.5271074,27.62171 C25.0000915,28.1143185 25.7268144,28.1377389 26.2228926,27.62171 Z" id="Path" fill-opacity="0.85"></path>
                <path d="M7.9021074,0.378309742 L0.369149715,8.15460874 C0.138431143,8.38917265 0,8.71759814 0,9.02254322 C0,9.70281457 0.461437144,10.1602322 1.11898434,10.1602322 C1.44199329,10.1602322 1.69577929,10.0429502 1.91496562,9.82009652 L5.20270159,6.39525937 L7.74062655,3.50993721 L7.62527465,6.92305818 L7.62527465,26.8388306 C7.62527465,27.5073317 8.08668226,28 8.74424126,28 C9.40180027,28 9.87478442,27.5073317 9.87478442,26.8388306 L9.87478442,6.92305818 L9.75937345,3.50993721 L12.2972925,6.39525937 L15.573511,9.82009652 C15.8042148,10.0429502 16.0580126,10.1602322 16.3810334,10.1602322 C17.0270159,10.1602322 17.5,9.70281457 17.5,9.02254322 C17.5,8.71759814 17.3615541,8.38917265 17.1308503,8.15460874 L9.5978926,0.378309742 C9.12490845,-0.11430628 8.38660902,-0.137763872 7.9021074,0.378309742 Z" id="Path" fill-opacity="0.85"></path>
            </g>
        </g>
    </g>
</svg>