<?xml version="1.0" encoding="UTF-8"?>
<svg width="43px" height="44px" viewBox="0 0 43 44" version="1.1" xmlns="http://www.w3.org/2000/svg" xmlns:xlink="http://www.w3.org/1999/xlink">
    <title>Checked</title>
    <g id="Page-1" stroke="none" stroke-width="1" fill="none" fill-rule="evenodd" fill-opacity="0.85">
        <g id="iPhone-13-Pro" transform="translate(-271.000000, -209.000000)" fill="#000000" fill-rule="nonzero">
            <path d="M314,216.099957 L314,245.010714 C314,249.67661 311.603994,252.055276 306.866858,252.055276 L278.114843,252.055276 C273.396006,252.055276 271,249.694972 271,245.010714 L271,216.099957 C271,211.415699 273.396006,209.055276 278.114843,209.055276 L306.866858,209.055276 C311.603994,209.055276 314,211.434005 314,216.099957 Z M301.818984,219.295137 L289.347205,239.13317 L283.133035,231.361893 C282.550454,230.606361 282.011025,230.368959 281.342119,230.368959 C280.263262,230.368959 279.421749,231.254023 279.421749,232.333386 C279.421749,232.872956 279.637529,233.412748 280.004329,233.887553 L287.362162,242.781075 C287.987894,243.579932 288.613649,243.925204 289.433597,243.925204 C290.253544,243.925204 290.922362,243.536607 291.418617,242.781075 L304.925992,221.56171 C305.228032,221.108413 305.508639,220.547158 305.508639,220.029095 C305.508639,218.928181 304.537561,218.194245 303.523397,218.194245 C302.876233,218.194245 302.250501,218.582798 301.818984,219.295137 Z" id="Checked"></path>
        </g>
    </g>
</svg>